<?xml version="1.0" encoding="UTF-8"?>
<svg version="1.1" xmlns="http://www.w3.org/2000/svg" width="500" height="500">
<path d="M0 0 C4.96516425 4.71759374 6.49256122 12.46005602 8.5859375 18.76953125 C10.00642103 22.88587869 11.05372959 24.95047127 14.75 27.25 C17.01183244 28.0628786 17.01183244 28.0628786 19.46875 28.57421875 C20.39115479 28.79392334 21.31355957 29.01362793 22.26391602 29.23999023 C23.74202759 29.58525757 23.74202759 29.58525757 25.25 29.9375 C36.55294683 32.7358067 47.11992819 36.52288427 57.75 41.25 C58.39759277 41.53456055 59.04518555 41.81912109 59.71240234 42.11230469 C72.98943247 48.04075186 85.12605863 56.33588138 95.6875 66.30859375 C97.52293432 68.03626582 99.40237423 69.62127167 101.375 71.1875 C102.15875 71.868125 102.9425 72.54875 103.75 73.25 C103.75 73.91 103.75 74.57 103.75 75.25 C104.74 75.58 105.73 75.91 106.75 76.25 C108.57984439 78.29564187 110.26899041 80.32901377 111.9375 82.5 C112.42436279 83.13043213 112.91122559 83.76086426 113.4128418 84.41040039 C124.29219163 98.711784 134.7242503 115.60940414 132.75 134.25 C130.52949388 141.67935693 126.49052827 146.52094684 119.75 150.25 C115.73953229 152.1181511 111.63598255 153.62133915 107.44140625 155.01953125 C103.23763545 156.461926 101.10833243 157.49547181 98.75 161.25 C97.74568606 163.59204372 97.74568606 163.59204372 96.9453125 166.16015625 C96.61619873 167.13654053 96.28708496 168.1129248 95.94799805 169.11889648 C95.59390869 170.17278564 95.23981934 171.2266748 94.875 172.3125 C85.36514681 199.51853358 72.30125182 224.02168202 52.75 245.25 C52.04230469 246.02859375 51.33460938 246.8071875 50.60546875 247.609375 C38.53474745 260.29469514 20.93525319 272.01006493 2.9375 272.5625 C-2.90222189 272.51020398 -7.4632381 270.69691289 -11.8515625 266.84375 C-16.8404705 261.15806714 -18.20360631 253.05671967 -19.59155273 245.83520508 C-20.29806579 242.57495409 -21.05910061 240.46389492 -23.29296875 237.9609375 C-27.2447832 235.6744187 -31.26387795 234.48053656 -35.625 233.1875 C-71.63995167 221.80118822 -108.47422261 198.8795035 -127.25 165.25 C-128.75602567 162.30032843 -130.07802686 159.3464764 -131.25 156.25 C-131.6625 155.1775 -132.075 154.105 -132.5 153 C-134.04130233 145.29348833 -134.78828858 136.89523592 -130.55078125 129.94921875 C-126.71478032 124.93822654 -122.89987019 122.40192776 -116.96044922 120.15966797 C-110.16443437 117.81416402 -110.16443437 117.81416402 -105.75 112.5 C-105.19958855 110.76519533 -104.70815841 109.01141729 -104.25 107.25 C-103.41490547 104.53383396 -102.56542693 101.82724433 -101.6875 99.125 C-101.31540405 97.97874146 -101.31540405 97.97874146 -100.93579102 96.80932617 C-93.29600812 74.05560963 -80.82542046 54.06922982 -64.90625 36.23046875 C-63.0976335 34.20109465 -61.35314086 32.17271028 -59.63671875 30.0703125 C-57.69659916 27.77773256 -55.85057996 25.85829598 -53.5625 23.9375 C-51.32493663 22.04161298 -49.13296579 20.13907192 -47.00390625 18.12109375 C-35.4995451 7.2590122 -16.368673 -8.81390084 0 0 Z " fill="#776DD4" transform="translate(250.25,115.75)"/>
<path d="M0 0 C5.07276581 4.21444612 10.44558686 9.32537042 12.45703125 15.75390625 C13.70131262 19.5383565 14.89458658 22.31676164 18.546875 24.26611328 C23.56598642 26.32548992 28.77158305 27.82810141 33.95898438 29.39990234 C58.54028396 37.2569186 83.45879645 51.93305144 101.21484375 70.7734375 C102.7592139 72.35075421 104.39164467 73.70717611 106.1171875 75.08203125 C106.9628125 75.80390625 107.8084375 76.52578125 108.6796875 77.26953125 C108.6796875 77.92953125 108.6796875 78.58953125 108.6796875 79.26953125 C109.3396875 79.26953125 109.9996875 79.26953125 110.6796875 79.26953125 C113.45692591 82.25227356 115.92902055 85.48473795 118.44189453 88.69189453 C119.60347474 90.1723938 120.77976118 91.64132124 121.95703125 93.109375 C138.13471119 113.83613893 149.79184638 139.51551877 147.6796875 166.26953125 C145.03632888 184.24436986 134.5391382 197.20173461 120.6796875 208.26953125 C116.95902722 210.93011514 113.62294384 212.99366325 109.20703125 214.28515625 C105.8385534 215.71644595 104.82646547 217.34925122 103.37890625 220.671875 C102.68623587 222.50874543 102.01692453 224.35453914 101.3671875 226.20703125 C100.60929911 228.20427648 99.84480891 230.19902724 99.07421875 232.19140625 C98.68443848 233.20396484 98.2946582 234.21652344 97.89306641 235.25976562 C93.09986712 247.14921448 86.98494425 258.74008564 79.6796875 269.26953125 C79.24930176 269.90455566 78.81891602 270.53958008 78.37548828 271.19384766 C71.34817088 281.5575345 64.01530617 290.95331724 55.12890625 299.8125 C53.66412828 301.28195031 52.21978485 302.7729121 50.8203125 304.3046875 C33.84952667 322.50269958 8.86941669 335.5972618 -16.015625 337.47265625 C-31.74798816 337.77617451 -46.58931823 332.84532359 -58.3203125 322.26953125 C-64.46471896 315.49461225 -74.3203125 302.87132004 -74.3203125 293.26953125 C-74.97128906 293.17285156 -75.62226563 293.07617188 -76.29296875 292.9765625 C-102.62330596 286.82715471 -126.89458002 269.10934479 -146.83325195 251.54956055 C-148.19789294 250.37490734 -149.60889338 249.2546807 -151.0234375 248.140625 C-153.11264429 246.43870314 -154.77983143 244.76372852 -156.5078125 242.70703125 C-158.48721928 240.37278481 -160.47913026 238.10501234 -162.60546875 235.90234375 C-179.83773606 217.9327211 -193.84754412 192.66189953 -193.53515625 167.2890625 C-192.13867475 147.66214976 -182.75867732 133.57508394 -168.45703125 120.89453125 C-166.3203125 119.26953125 -166.3203125 119.26953125 -164.4609375 118.3269043 C-157.9694477 114.89756628 -156.28103893 110.84888793 -153.9453125 104.08203125 C-149.97196095 93.52404361 -145.11081566 83.93394465 -139.3203125 74.26953125 C-138.74925781 73.30402344 -138.17820313 72.33851563 -137.58984375 71.34375 C-130.34747788 59.55925838 -122.01118605 48.24544062 -113.1328125 37.64453125 C-112.67551758 37.0942627 -112.21822266 36.54399414 -111.74707031 35.97705078 C-110.65214975 34.69908752 -109.49199996 33.47750047 -108.3203125 32.26953125 C-107.6603125 32.26953125 -107.0003125 32.26953125 -106.3203125 32.26953125 C-105.93746094 31.39748047 -105.93746094 31.39748047 -105.546875 30.5078125 C-103.29908634 26.40595613 -99.69393808 23.45606847 -96.3203125 20.26953125 C-95.73378906 19.71265625 -95.14726562 19.15578125 -94.54296875 18.58203125 C-68.06478728 -5.52064598 -32.65584193 -24.35444104 0 0 Z M-78.3203125 33.26953125 C-79.24070312 34.0790625 -80.16109375 34.88859375 -81.109375 35.72265625 C-96.41548684 49.31781299 -108.56188146 64.86693852 -119.3203125 82.26953125 C-119.81144531 83.03394531 -120.30257812 83.79835938 -120.80859375 84.5859375 C-128.80901289 97.3305405 -136.83809337 112.98482976 -139.0703125 127.95703125 C-140.3203125 131.26953125 -140.3203125 131.26953125 -142.0859375 132.203125 C-143.62729574 132.68008376 -145.18244394 133.11388192 -146.74609375 133.51171875 C-155.34431023 136.04290843 -161.91335914 141.66272391 -166.5 149.2109375 C-172.46814089 160.34130244 -172.7416378 172.12091764 -169.34765625 184.1484375 C-163.42076573 202.15446613 -153.45024716 215.85783833 -140.3203125 229.26953125 C-139.71832031 229.92179688 -139.11632812 230.5740625 -138.49609375 231.24609375 C-120.75008144 250.10961314 -90.72382172 269.91097989 -65.16796875 274.8828125 C-61.88428518 275.60125602 -59.95831366 276.15822998 -57.3203125 278.26953125 C-55.50030404 281.7551291 -54.50767239 285.50355012 -53.44384766 289.27368164 C-50.38474803 300.08939507 -44.86220345 307.31912146 -35.04296875 312.96484375 C-23.7975646 318.3536027 -10.88302416 317.11100609 0.6796875 313.26953125 C9.32144271 309.69645745 17.54847829 305.35083012 24.6796875 299.26953125 C25.67355469 298.46773438 26.66742188 297.6659375 27.69140625 296.83984375 C43.35867102 284.08597053 55.55079149 268.67299641 65.6796875 251.26953125 C66.0391748 250.66270508 66.39866211 250.05587891 66.76904297 249.43066406 C81.62247717 225.60723482 81.62247717 225.60723482 88.6796875 199.26953125 C89.33453125 199.13417969 89.989375 198.99882812 90.6640625 198.859375 C103.22180554 195.89730849 113.09065053 189.80092789 120.6796875 179.26953125 C127.43665077 167.42607618 127.09940301 153.38135351 123.72265625 140.4609375 C118.17953815 123.49941134 107.70940716 109.06561181 96.3046875 95.58203125 C95.51843994 94.64472168 95.51843994 94.64472168 94.71630859 93.68847656 C93.41624906 92.17520218 92.05293189 90.71671957 90.6796875 89.26953125 C90.0196875 89.26953125 89.3596875 89.26953125 88.6796875 89.26953125 C88.46699219 88.71523437 88.25429688 88.1609375 88.03515625 87.58984375 C86.21723851 84.47790387 83.73216868 82.41544835 80.9921875 80.14453125 C80.41404297 79.66371094 79.83589844 79.18289062 79.24023438 78.6875 C58.67049348 61.88777593 35.08332636 51.35855712 9.8671875 43.6015625 C9.13701416 43.36695313 8.40684082 43.13234375 7.65454102 42.890625 C6.04017889 42.38290622 4.4066977 41.93633258 2.76953125 41.5078125 C-0.45201245 39.59897259 -0.72948949 37.16267664 -1.7578125 33.64453125 C-5.0907574 23.20680117 -10.95358942 15.88982477 -20.5078125 10.45703125 C-43.53463889 3.28474106 -62.12224357 18.84064316 -78.3203125 33.26953125 Z " fill="#7974D4" transform="translate(272.3203125,87.73046875)"/>
<path d="M0 0 C6.08279189 5.79554894 8.03206262 16.28501759 9.75 24.25 C9.09 24.25 8.43 24.25 7.75 24.25 C7.75 23.26 7.75 22.27 7.75 21.25 C7.09 21.25 6.43 21.25 5.75 21.25 C5.66363281 20.62351563 5.57726562 19.99703125 5.48828125 19.3515625 C5.06408939 16.88424469 4.60726495 14.6042149 3.75 12.25 C1.29295238 11.01709799 1.29295238 11.01709799 -1.25 10.25 C-2.5 7.3125 -2.5 7.3125 -3.25 4.25 C-3.58 3.26 -3.91 2.27 -4.25 1.25 C-5.57 1.25 -6.89 1.25 -8.25 1.25 C-8.25 0.59 -8.25 -0.07 -8.25 -0.75 C-9.12011719 -0.55083984 -9.12011719 -0.55083984 -10.0078125 -0.34765625 C-14.40770982 0.64704001 -18.78894158 1.56368332 -23.25 2.25 C-16.46112793 -3.72420743 -7.74143884 -4.16846707 0 0 Z " fill="#A09ADE" transform="translate(250.25,115.75)"/>
<path d="M0 0 C0.66 0.33 1.32 0.66 2 1 C-1.625 5.875 -1.625 5.875 -5 7 C-5.33 8.65 -5.66 10.3 -6 12 C-7.32 12 -8.64 12 -10 12 C-10.2475 12.886875 -10.495 13.77375 -10.75 14.6875 C-12.04964625 18.13156256 -13.48729227 20.33024803 -16 23 C-16.66 23 -17.32 23 -18 23 C-18 23.99 -18 24.98 -18 26 C-18.66 26 -19.32 26 -20 26 C-20 27.32 -20 28.64 -20 30 C-20.66 30 -21.32 30 -22 30 C-20.93670055 20.48626807 -13.98848485 11.13596882 -6.69140625 5.0859375 C-4.48378333 3.35703468 -2.25781322 1.66261627 0 0 Z " fill="#908FD4" transform="translate(106,207)"/>
<path d="M0 0 C0.33 0 0.66 0 1 0 C1.01417969 1.29292969 1.02835937 2.58585938 1.04296875 3.91796875 C1.26773256 13.59773468 1.92465317 21.3205648 5.921875 30.2109375 C7.51119968 34.32245135 7.36894184 37.64648629 7 42 C4.22824309 39.22824309 3.55013153 35.97394915 2.4375 32.3125 C2.21642578 31.61705078 1.99535156 30.92160156 1.76757812 30.20507812 C-1.25919557 20.4114992 -2.18059735 10.08526276 0 0 Z " fill="#B5B3E3" transform="translate(80,246)"/>
<path d="M0 0 C5.28 0.33 10.56 0.66 16 1 C16 1.33 16 1.66 16 2 C25.89644867 2.22867275 35.22907228 1.87387655 45 0 C42.24832558 2.75167442 39.26115219 2.9635282 35.5625 3.625 C34.83820801 3.75471191 34.11391602 3.88442383 33.36767578 4.01806641 C22.47868027 5.86230693 12.6611706 5.1620887 2 2 C1.34 1.34 0.68 0.68 0 0 Z " fill="#C3BFE7" transform="translate(232,420)"/>
<path d="M0 0 C0.33 0 0.66 0 1 0 C1 2.64 1 5.28 1 8 C0.34 8 -0.32 8 -1 8 C-1.02578125 8.58007812 -1.0515625 9.16015625 -1.078125 9.7578125 C-1.47346176 15.20267782 -2.34938555 18.70515947 -6 23 C-6.99 23.33 -7.98 23.66 -9 24 C-8.33498775 19.66510534 -6.82704212 16.00365546 -5.0625 12 C-3.31686577 8.0197824 -1.58645965 4.04662171 0 0 Z " fill="#9E9BD9" transform="translate(358,295)"/>
<path d="M0 0 C2.66256029 2.66256029 3.05147436 5.07010408 4.0625 8.6875 C4.40410156 9.88761719 4.74570312 11.08773437 5.09765625 12.32421875 C6.63803841 18.59910884 7.11961939 24.4830092 7.0625 30.9375 C7.05798828 31.62134766 7.05347656 32.30519531 7.04882812 33.00976562 C7.0371956 34.67321604 7.01926694 36.3366205 7 38 C6.67 38 6.34 38 6 38 C5.22959149 31.93303301 4.90293888 26.11485027 5 20 C4.34 20 3.68 20 3 20 C2.92652344 19.14728516 2.92652344 19.14728516 2.8515625 18.27734375 C2.36946213 13.29841062 1.41563557 8.81316093 0 4 C0 2.68 0 1.36 0 0 Z " fill="#B2AEE0" transform="translate(413,216)"/>
<path d="M0 0 C0.99 0 1.98 0 3 0 C3 1.65 3 3.3 3 5 C3.99 5.33 4.98 5.66 6 6 C9.93987207 16.50632553 9.11399874 27.96745554 9 39 C8.67 39 8.34 39 8 39 C7.96261719 38.06800781 7.92523438 37.13601562 7.88671875 36.17578125 C7.29960055 24.79029308 5.89663244 14.05724677 0.76953125 3.70703125 C0 2 0 2 0 0 Z " fill="#B5B4E8" transform="translate(390,214)"/>
<path d="M0 0 C1.32 0.33 2.64 0.66 4 1 C3.61328125 1.4125 3.2265625 1.825 2.828125 2.25 C-3.14266187 8.87107059 -6.13978035 15.31897498 -8 24 C-8.66 22.68 -9.32 21.36 -10 20 C-9.67 19.67 -9.34 19.34 -9 19 C-8.6068352 17.32115762 -8.25914548 15.63149955 -7.9375 13.9375 C-7.76089844 13.01839844 -7.58429688 12.09929687 -7.40234375 11.15234375 C-7.26957031 10.44207031 -7.13679688 9.73179687 -7 9 C-6.34 9 -5.68 9 -5 9 C-5 7.35 -5 5.7 -5 4 C-3.68 4 -2.36 4 -1 4 C-0.67 2.68 -0.34 1.36 0 0 Z " fill="#A3A0DA" transform="translate(110,227)"/>
<path d="M0 0 C5.68502535 1.64566523 10.76681636 4.29032784 16 7 C16 7.33 16 7.66 16 8 C11.59085217 9.10228696 7.51617599 9.07654536 3 9 C3.33 8.34 3.66 7.68 4 7 C4.66 7 5.32 7 6 7 C6 6.01 6 5.02 6 4 C5.01 4.33 4.02 4.66 3 5 C3 4.34 3 3.68 3 3 C2.34 3 1.68 3 1 3 C0.67 2.01 0.34 1.02 0 0 Z " fill="#9A95DB" transform="translate(173,348)"/>
<path d="M0 0 C0 3 0 3 -2.046875 5.19140625 C-3.38492187 6.36509766 -3.38492187 6.36509766 -4.75 7.5625 C-5.63171875 8.34753906 -6.5134375 9.13257813 -7.421875 9.94140625 C-9.58929825 11.67206088 -11.47129013 12.90698288 -14 14 C-14 13.01 -14 12.02 -14 11 C-13.01 11 -12.02 11 -11 11 C-11.37125 10.13375 -11.37125 10.13375 -11.75 9.25 C-12 7 -12 7 -10.5 4.875 C-7.46484596 2.59863447 -4.65909226 1.8975132 -1 1 C-0.67 0.67 -0.34 0.34 0 0 Z " fill="#A299DC" transform="translate(328,385)"/>
<path d="M0 0 C2.90877977 2.90877977 2.30050485 5.1371374 2.3125 9.1875 C2.28403577 14.75986972 2.06190108 19.23704276 -1 24 C-1.99 24.33 -2.98 24.66 -4 25 C-3.34 21.7 -2.68 18.4 -2 15 C-1.34 15 -0.68 15 0 15 C0 10.05 0 5.1 0 0 Z " fill="#9090D5" transform="translate(399,238)"/>
<path d="M0 0 C0.66 0.33 1.32 0.66 2 1 C1.67 2.32 1.34 3.64 1 5 C-0.32 4.67 -1.64 4.34 -3 4 C-3.33 4.99 -3.66 5.98 -4 7 C-7.44444444 10 -7.44444444 10 -10 10 C-10 10.66 -10 11.32 -10 12 C-11.65 12 -13.3 12 -15 12 C-10.58990583 7.14889642 -5.41995647 3.651893 0 0 Z " fill="#A7A1DB" transform="translate(202,88)"/>
<path d="M0 0 C-0.66666667 1.33333333 -1.33333333 2.66666667 -2 4 C-2.2475 4.6703125 -2.495 5.340625 -2.75 6.03125 C-4.47467947 8.74762017 -6.05654368 8.96321633 -9.125 9.75 C-10.03507812 9.99234375 -10.94515625 10.2346875 -11.8828125 10.484375 C-12.93082031 10.73960937 -12.93082031 10.73960937 -14 11 C-5.91176471 0 -5.91176471 0 0 0 Z " fill="#9E99DA" transform="translate(314,374)"/>
<path d="M0 0 C1.76790259 5.58554731 0.38793188 11.30220741 -2.25 16.4296875 C-3.44385532 18.33578606 -4.6719731 20.18536783 -6 22 C-7 20 -7 20 -6.07421875 16.69921875 C-5.6196028 15.35936821 -5.15700142 14.02220729 -4.6875 12.6875 C-4.46126953 12.02298828 -4.23503906 11.35847656 -4.00195312 10.67382812 C-2.7662736 7.07362062 -1.44990559 3.51925442 0 0 Z " fill="#A6A6DE" transform="translate(154,200)"/>
<path d="M0 0 C1.32 0.33 2.64 0.66 4 1 C3.01 1.7734375 3.01 1.7734375 2 2.5625 C-1.75333644 5.61208585 -5.37602035 8.7986681 -9 12 C-9.66 11.67 -10.32 11.34 -11 11 C-10.67 10.01 -10.34 9.02 -10 8 C-9.01 8 -8.02 8 -7 8 C-7 7.01 -7 6.02 -7 5 C-6.34 5 -5.68 5 -5 5 C-5 4.34 -5 3.68 -5 3 C-3.35 2.67 -1.7 2.34 0 2 C0 1.34 0 0.68 0 0 Z " fill="#9A92D2" transform="translate(209,105)"/>
<path d="M0 0 C0 0.33 0 0.66 0 1 C-1.15757812 0.97679688 -2.31515625 0.95359375 -3.5078125 0.9296875 C-5.04686851 0.91091852 -6.58593155 0.89271954 -8.125 0.875 C-9.26582031 0.84986328 -9.26582031 0.84986328 -10.4296875 0.82421875 C-15.07663437 0.78415886 -18.59179859 1.37859259 -23 3 C-25.71061275 3.22663986 -28.27148292 3.0940868 -31 3 C-22.56027406 -2.62648396 -9.5665767 -2.21039203 0 0 Z " fill="#C2BEE7" transform="translate(251,77)"/>
<path d="M0 0 C0.33 0 0.66 0 1 0 C1.47826087 7.17391304 1.47826087 7.17391304 -0.375 10.375 C-3.76441663 12.47321029 -6.94004867 12.94600991 -10.85546875 13.5078125 C-11.91701172 13.75144531 -11.91701172 13.75144531 -13 14 C-13.33 14.66 -13.66 15.32 -14 16 C-14.66 15.34 -15.32 14.68 -16 14 C-15.18015625 13.74347656 -14.3603125 13.48695313 -13.515625 13.22265625 C-7.1138292 11.11155828 -7.1138292 11.11155828 -2.3125 6.6640625 C-1.3654673 4.45664069 -0.5881533 2.32726175 0 0 Z " fill="#B1ADE0" transform="translate(146,223)"/>
<path d="M0 0 C4.11526292 0.64173654 7.30388435 2.86986158 10.75 5.0625 C11.35199219 5.43955078 11.95398438 5.81660156 12.57421875 6.20507812 C14.05249143 7.13193163 15.52666089 8.06532389 17 9 C15.68 9.33 14.36 9.66 13 10 C12.67 9.01 12.34 8.02 12 7 C10.6078125 6.8453125 10.6078125 6.8453125 9.1875 6.6875 C5.96745642 5.9929808 4.97420135 5.52259061 3 3 C3 3.66 3 4.32 3 5 C2.01 4.67 1.02 4.34 0 4 C0 2.66666667 0 1.33333333 0 0 Z " fill="#ACA5DD" transform="translate(314,161)"/>
<path d="M0 0 C2.475 0.99 2.475 0.99 5 2 C5 2.66 5 3.32 5 4 C5.66 4 6.32 4 7 4 C8.7265625 5.96875 8.7265625 5.96875 10.625 8.5 C11.25664062 9.3353125 11.88828125 10.170625 12.5390625 11.03125 C13.26222656 12.00578125 13.26222656 12.00578125 14 13 C9.95136013 13 8.98442858 11.70680732 6 9 C0 2.64622642 0 2.64622642 0 0 Z " fill="#B3AAE1" transform="translate(208,401)"/>
<path d="M0 0 C1.32 0.33 2.64 0.66 4 1 C4 1.66 4 2.32 4 3 C4.9590625 3.7115625 4.9590625 3.7115625 5.9375 4.4375 C8 6 8 6 9 9 C9.53625 9.474375 10.0725 9.94875 10.625 10.4375 C11.07875 10.953125 11.5325 11.46875 12 12 C11.5859375 14.09765625 11.5859375 14.09765625 11 16 C9.72651788 14.27278316 8.45632943 12.54313762 7.1875 10.8125 C6.12595703 9.36810547 6.12595703 9.36810547 5.04296875 7.89453125 C3.22731563 5.3220667 1.57792699 2.72279516 0 0 Z " fill="#B1AFE1" transform="translate(371,186)"/>
<path d="M0 0 C0.66 0.33 1.32 0.66 2 1 C-1.44293565 6.52956332 -3.66312162 8.81089656 -10 11 C-11.34013497 11.65288627 -12.67741528 12.31225595 -14 13 C-11.24160796 9.31999566 -8.37924618 6.50494111 -4.75 3.6875 C-3.41195312 2.64142578 -3.41195312 2.64142578 -2.046875 1.57421875 C-1.37140625 1.05472656 -0.6959375 0.53523438 0 0 Z " fill="#B1AEDE" transform="translate(215,124)"/>
<path d="M0 0 C6.68478261 2.35205314 6.68478261 2.35205314 8.125 5.3125 C8.41375 6.199375 8.7025 7.08625 9 8 C10.55713102 10.11610114 12.25734726 12.02805084 14 14 C10.14406926 12.41438362 7.66783709 9.93490046 4.75 7 C3.85796875 6.113125 2.9659375 5.22625 2.046875 4.3125 C0 2 0 2 0 0 Z " fill="#B8B3E3" transform="translate(135,297)"/>
<path d="M0 0 C-0.928125 0.4021875 -0.928125 0.4021875 -1.875 0.8125 C-4.2995233 1.95556848 -4.2995233 1.95556848 -6 5 C-6.99 4.67 -7.98 4.34 -9 4 C-11.18298142 4.59145334 -11.18298142 4.59145334 -13 6 C-13.80528889 8.05000871 -13.80528889 8.05000871 -14 10 C-15 8 -15 8 -14.40625 5.5234375 C-12.56822229 2.22519888 -11.04050097 1.78963848 -7.5 0.625 C-6.5203125 0.28726562 -5.540625 -0.05046875 -4.53125 -0.3984375 C-2 -1 -2 -1 0 0 Z " fill="#B2AEE2" transform="translate(374,284)"/>
<path d="M0 0 C0.99 0 1.98 0 3 0 C1.51095825 3.89608498 -0.24378713 7.59097018 -2.125 11.3125 C-2.66382813 12.38113281 -3.20265625 13.44976562 -3.7578125 14.55078125 C-4.37269531 15.76314453 -4.37269531 15.76314453 -5 17 C-5.33 17 -5.66 17 -6 17 C-5.74438677 14.6568787 -5.40729228 12.32156597 -5 10 C-4.34 9.67 -3.68 9.34 -3 9 C-2.09274566 6.88672575 -2.09274566 6.88672575 -1.375 4.4375 C-0.98441406 3.19806641 -0.98441406 3.19806641 -0.5859375 1.93359375 C-0.39257812 1.29550781 -0.19921875 0.65742188 0 0 Z " fill="#B6B0E2" transform="translate(148,173)"/>
<path d="M0 0 C2.625 -0.625 2.625 -0.625 6 0 C8.42504235 3.11323005 10.22831653 6.48176333 12 10 C8.78727751 8.56006357 6.3793336 6.76981628 3.75 4.4375 C3.04359375 3.81746094 2.3371875 3.19742188 1.609375 2.55859375 C1.07828125 2.04425781 0.5471875 1.52992188 0 1 C0 0.67 0 0.34 0 0 Z " fill="#A4A0DD" transform="translate(346,162)"/>
<path d="M0 0 C0.66 0.33 1.32 0.66 2 1 C1.54625 1.4125 1.0925 1.825 0.625 2.25 C-1.0986372 3.90721867 -1.0986372 3.90721867 -1.875 6.0625 C-3 8 -3 8 -5.375 9.3125 C-8.16653942 10.04361747 -9.30861211 9.79596365 -12 9 C-11.30132812 8.51789063 -10.60265625 8.03578125 -9.8828125 7.5390625 C-8.97273438 6.90742188 -8.06265625 6.27578125 -7.125 5.625 C-6.22007812 4.99851562 -5.31515625 4.37203125 -4.3828125 3.7265625 C-1.96505875 2.0701905 -1.96505875 2.0701905 0 0 Z " fill="#ACA5DF" transform="translate(298,385)"/>
<path d="M0 0 C0.845625 0.144375 1.69125 0.28875 2.5625 0.4375 C6.03593149 1.0058797 9.51445662 1.51202393 13 2 C13 1.34 13 0.68 13 0 C16.3 0 19.6 0 23 0 C17.52600164 3.64933224 11.41446006 3.45216686 5 3 C1.875 2 1.875 2 0 1 C0 0.67 0 0.34 0 0 Z " fill="#C3C0E9" transform="translate(243,385)"/>
<path d="M0 0 C1.30102931 4.32058242 0.72449924 7.58055464 0 12 C-1 13 -1 13 -4.0625 13.0625 C-5.031875 13.041875 -6.00125 13.02125 -7 13 C-6.55011719 12.61199219 -6.10023437 12.22398437 -5.63671875 11.82421875 C-3.6639014 9.62539846 -2.85108103 7.57011171 -1.8125 4.8125 C-1.46832031 3.91144531 -1.12414062 3.01039063 -0.76953125 2.08203125 C-0.51558594 1.39496094 -0.26164062 0.70789063 0 0 Z " fill="#A7A7DD" transform="translate(118,192)"/>
<path d="M0 0 C1 2 1 2 0.43359375 3.8046875 C-1.98590271 8.83344485 -4.08928578 11.32142861 -9 14 C-7.65070536 10.16336928 -5.92248975 7.34827431 -3.375 4.1875 C-2.42753906 3.00220703 -2.42753906 3.00220703 -1.4609375 1.79296875 C-0.97882813 1.20128906 -0.49671875 0.60960937 0 0 Z " fill="#A7A5DB" transform="translate(151,136)"/>
<path d="M0 0 C4.4785979 -0.17563129 8.02584132 -0.22085338 12 2 C12.33 2.99 12.66 3.98 13 5 C11.35 5.33 9.7 5.66 8 6 C8 5.01 8 4.02 8 3 C7.05125 2.87625 6.1025 2.7525 5.125 2.625 C2 2 2 2 0 0 Z " fill="#9991D4" transform="translate(248,78)"/>
<path d="M0 0 C1.65804926 2.4870739 3.19874478 4.97317502 4.6875 7.5625 C5.14511719 8.34753906 5.60273437 9.13257813 6.07421875 9.94140625 C6.37972656 10.62074219 6.68523437 11.30007813 7 12 C6.67 12.66 6.34 13.32 6 14 C3.525 13.01 3.525 13.01 1 12 C0.67 8.04 0.34 4.08 0 0 Z " fill="#AAA5DD" transform="translate(106,280)"/>
<path d="M0 0 C1 2 1 2 0.3984375 4.05859375 C-2.97832611 11.90763588 -2.97832611 11.90763588 -8 14 C-6.6744419 10.37723685 -5.05653045 7.36494652 -2.875 4.1875 C-2.33617187 3.39730469 -1.79734375 2.60710937 -1.2421875 1.79296875 C-0.83226562 1.20128906 -0.42234375 0.60960937 0 0 Z " fill="#A6A4DC" transform="translate(141,150)"/>
<path d="M0 0 C2.31 0.33 4.62 0.66 7 1 C7 1.99 7 2.98 7 4 C8.65 4 10.3 4 12 4 C12.99 5.98 13.98 7.96 15 10 C11.58809167 8.38340534 8.43782465 6.45729895 5.25 4.4375 C4.26515625 3.81746094 3.2803125 3.19742188 2.265625 2.55859375 C1.51796875 2.04425781 0.7703125 1.52992188 0 1 C0 0.67 0 0.34 0 0 Z " fill="#B4AFE2" transform="translate(328,150)"/>
<path d="M0 0 C0.33 0.66 0.66 1.32 1 2 C0.34 2.66 -0.32 3.32 -1 4 C-1.33 4.66 -1.66 5.32 -2 6 C-2.66 6 -3.32 6 -4 6 C-4.226875 6.61875 -4.45375 7.2375 -4.6875 7.875 C-6.37929835 10.61410209 -7.99244161 11.05024472 -11 12 C-8.01665146 6.98797445 -4.56048012 3.61251516 0 0 Z " fill="#B0ACDE" transform="translate(200,137)"/>
<path d="M0 0 C3.96 0 7.92 0 12 0 C12.33 0.99 12.66 1.98 13 3 C13.66 3.66 14.32 4.32 15 5 C9.88634986 3.9318153 4.92772031 2.76892524 0 1 C0 0.67 0 0.34 0 0 Z " fill="#ADACE0" transform="translate(282,131)"/>
<path d="M0 0 C1.43419213 4.30257638 2.28707573 8.51876172 3 13 C-4 4.55172414 -4 4.55172414 -4 1 C-2.68 0.67 -1.36 0.34 0 0 Z " fill="#9E9CDA" transform="translate(94,293)"/>
<path d="M0 0 C1.65 0.33 3.3 0.66 5 1 C4 4 4 4 1.78515625 5.421875 C0.43744141 6.07929688 0.43744141 6.07929688 -0.9375 6.75 C-1.83339844 7.19859375 -2.72929687 7.6471875 -3.65234375 8.109375 C-4.42707031 8.40328125 -5.20179688 8.6971875 -6 9 C-6.66 8.67 -7.32 8.34 -8 8 C-7.67 7.34 -7.34 6.68 -7 6 C-6.195625 5.896875 -5.39125 5.79375 -4.5625 5.6875 C-3.716875 5.460625 -2.87125 5.23375 -2 5 C-0.62533375 2.52363988 -0.62533375 2.52363988 0 0 Z " fill="#A7A1DC" transform="translate(386,294)"/>
<path d="M0 0 C0.99 0.33 1.98 0.66 3 1 C-0.8188835 4.35598853 -4.24609694 6.3273304 -9 8 C-9.99 7.67 -10.98 7.34 -12 7 C-11.34 7 -10.68 7 -10 7 C-9.67 6.01 -9.34 5.02 -9 4 C-6.9375 3.3125 -6.9375 3.3125 -5 3 C-5 2.67 -5 2.34 -5 2 C-3.35 2 -1.7 2 0 2 C0 1.34 0 0.68 0 0 Z " fill="#B1AEE0" transform="translate(278,377)"/>
<path d="M0 0 C0.99 0.33 1.98 0.66 3 1 C1.35 5.62 -0.3 10.24 -2 15 C-2.33 15 -2.66 15 -3 15 C-3.42589023 9.46342706 -1.905247 5.10334017 0 0 Z " fill="#B0ACDD" transform="translate(375,302)"/>
<path d="M0 0 C0 4.61730205 -1.02636647 7.91182134 -4.125 11.375 C-4.74375 11.91125 -5.3625 12.4475 -6 13 C-6 8.61793033 -5.43228025 7.69573036 -3 4.25 C-2.443125 3.45078125 -1.88625 2.6515625 -1.3125 1.828125 C-0.879375 1.22484375 -0.44625 0.6215625 0 0 Z " fill="#ABA8DF" transform="translate(335,343)"/>
<path d="M0 0 C1.32 0 2.64 0 4 0 C2.68139111 4.61513112 0.78644563 8.09897612 -2 12 C-3.45169732 9.09660535 -2.72348441 7.09125158 -2 4 C-1.34 3.67 -0.68 3.34 0 3 C0 2.01 0 1.02 0 0 Z " fill="#AFACE1" transform="translate(357,340)"/>
<path d="M0 0 C0.66 0.33 1.32 0.66 2 1 C1.690625 1.598125 1.38125 2.19625 1.0625 2.8125 C-0.10209704 5.08956772 -0.10209704 5.08956772 -1 8 C-1.66 8 -2.32 8 -3 8 C-3 9.32 -3 10.64 -3 12 C-3.66 12 -4.32 12 -5 12 C-4.52389341 7.00088076 -2.96837781 4.02167317 0 0 Z " fill="#A8A8D8" transform="translate(89,225)"/>
<path d="M0 0 C3.29696105 1.09898702 4.04670589 1.94597387 6.1875 4.5625 C6.71730469 5.20316406 7.24710937 5.84382812 7.79296875 6.50390625 C8.19128906 6.99761719 8.58960938 7.49132812 9 8 C8.67 8.66 8.34 9.32 8 10 C6.68 9.34 5.36 8.68 4 8 C4 7.34 4 6.68 4 6 C3.01 6.33 2.02 6.66 1 7 C0.31292445 4.50935112 0 2.62113708 0 0 Z " fill="#A7A2DE" transform="translate(354,191)"/>
<path d="M0 0 C1.64826111 2.96687001 2.44271087 5.65626525 3 9 C4.98 9 6.96 9 9 9 C9 9.66 9 10.32 9 11 C2.25 10.25 2.25 10.25 0 8 C-0.6875 4.4375 -0.6875 4.4375 -1 1 C-0.67 0.67 -0.34 0.34 0 0 Z " fill="#AAABDE" transform="translate(272,120)"/>
<path d="M0 0 C0.33 0 0.66 0 1 0 C1.22174933 1.45635371 1.42698698 2.91522956 1.625 4.375 C1.74101563 5.18710938 1.85703125 5.99921875 1.9765625 6.8359375 C1.98429687 7.55007812 1.99203125 8.26421875 2 9 C1.34 9.66 0.68 10.32 0 11 C-0.66 11.99 -1.32 12.98 -2 14 C-2.3690205 4.58997722 -2.3690205 4.58997722 0 0 Z " fill="#9B98D8" transform="translate(83,237)"/>
<path d="M0 0 C1.305239 3.91571701 0.32239848 5.03892997 -1.4375 8.6875 C-1.91058594 9.68136719 -2.38367188 10.67523438 -2.87109375 11.69921875 C-3.42990234 12.83810547 -3.42990234 12.83810547 -4 14 C-4.33 14 -4.66 14 -5 14 C-4.67 10.37 -4.34 6.74 -4 3 C-3.01 3.33 -2.02 3.66 -1 4 C-0.67 2.68 -0.34 1.36 0 0 Z " fill="#ABA8DF" transform="translate(141,190)"/>
<path d="M0 0 C1.31625194 2.63250388 0.74813658 3.80179056 0.0625 6.625 C-0.13214844 7.44226563 -0.32679687 8.25953125 -0.52734375 9.1015625 C-0.76130859 10.04128906 -0.76130859 10.04128906 -1 11 C-2.32 11.33 -3.64 11.66 -5 12 C-4.54738642 10.56068883 -4.08767021 9.12361001 -3.625 7.6875 C-3.24214844 6.48673828 -3.24214844 6.48673828 -2.8515625 5.26171875 C-2 3 -2 3 0 0 Z " fill="#ADADDF" transform="translate(124,179)"/>
<path d="M0 0 C6.18160604 0.53753096 11.326858 2.54582388 17 5 C17 5.33 17 5.66 17 6 C14.03 5.67 11.06 5.34 8 5 C8 4.34 8 3.68 8 3 C5.36 2.34 2.72 1.68 0 1 C0 0.67 0 0.34 0 0 Z " fill="#C1BDE8" transform="translate(284,149)"/>
<path d="M0 0 C2.00993705 3.01490557 2.72623341 5.2149927 3.625 8.6875 C3.88539063 9.68136719 4.14578125 10.67523438 4.4140625 11.69921875 C4.60742188 12.45847656 4.80078125 13.21773437 5 14 C4.34 14 3.68 14 3 14 C3 13.01 3 12.02 3 11 C2.34 11 1.68 11 1 11 C-0.20272819 8.59454362 -0.10071472 7.05003047 -0.0625 4.375 C-0.05347656 3.55773437 -0.04445312 2.74046875 -0.03515625 1.8984375 C-0.02355469 1.27195312 -0.01195312 0.64546875 0 0 Z " fill="#B3AEDF" transform="translate(255,126)"/>
<path d="M0 0 C0 0.66 0 1.32 0 2 C-0.99 2 -1.98 2 -3 2 C-3.66 3.32 -4.32 4.64 -5 6 C-7.97 5.505 -7.97 5.505 -11 5 C-7.72709962 2.33319229 -4.35126896 0 0 0 Z " fill="#ABA6DD" transform="translate(286,395)"/>
<path d="M0 0 C2.52480693 2.52480693 2.55738633 4.13823034 3.125 7.625 C3.29257813 8.62789063 3.46015625 9.63078125 3.6328125 10.6640625 C3.75398437 11.43492187 3.87515625 12.20578125 4 13 C2 11.5625 2 11.5625 0 9 C-0.35442445 5.97175582 -0.23347235 3.03514061 0 0 Z " fill="#B3AEE1" transform="translate(215,366)"/>
<path d="M0 0 C0.99 0.33 1.98 0.66 3 1 C2.04578192 2.14926266 1.08647955 3.29430541 0.125 4.4375 C-0.40867187 5.07558594 -0.94234375 5.71367187 -1.4921875 6.37109375 C-3 8 -3 8 -5 9 C-4.6875 6.125 -4.6875 6.125 -4 3 C-3.01 2.34 -2.02 1.68 -1 1 C-0.67 0.67 -0.34 0.34 0 0 Z " fill="#A7A1D7" transform="translate(301,358)"/>
<path d="M0 0 C0 3 0 3 -2.1875 6.1875 C-5 9 -5 9 -7.8125 9.375 C-8.534375 9.25125 -9.25625 9.1275 -10 9 C-6.85281112 5.7317654 -3.50647501 2.8689341 0 0 Z " fill="#ACA6DD" transform="translate(388,272)"/>
<path d="M0 0 C0.33 0 0.66 0 1 0 C1 1.98 1 3.96 1 6 C0.34 6 -0.32 6 -1 6 C-1.66 7.65 -2.32 9.3 -3 11 C-3.66 11 -4.32 11 -5 11 C-3.77782954 6.95743617 -2.37245704 3.50711041 0 0 Z " fill="#A8A3DB" transform="translate(164,181)"/>
<path d="M0 0 C1.34313399 0.64669414 2.67391178 1.31903578 4 2 C4.9075 2.4125 5.815 2.825 6.75 3.25 C7.86375 4.11625 7.86375 4.11625 9 5 C9.3125 8.1875 9.3125 8.1875 9 11 C8.443125 10.29875 7.88625 9.5975 7.3125 8.875 C4.90875268 5.88655739 2.46189568 2.94059762 0 0 Z " fill="#A9A8E1" transform="translate(259,103)"/>
<path d="M0 0 C3.63 2.31 7.26 4.62 11 7 C7 8 7 8 3.8125 6.3125 C1 4 1 4 0 0 Z " fill="#A9A3DD" transform="translate(227,393)"/>
<path d="M0 0 C5.05255964 0.63156995 9.29593201 2.13459373 14 4 C14 4.33 14 4.66 14 5 C10.37 4.67 6.74 4.34 3 4 C2.67 3.01 2.34 2.02 2 1 C1.34 0.67 0.68 0.34 0 0 Z " fill="#B5B5E1" transform="translate(201,361)"/>
<path d="M0 0 C1 3 1 3 0.22265625 5.04296875 C-0.16019531 5.75066406 -0.54304688 6.45835937 -0.9375 7.1875 C-1.31777344 7.90292969 -1.69804687 8.61835938 -2.08984375 9.35546875 C-2.54037109 10.16951172 -2.54037109 10.16951172 -3 11 C-4.0625 9.1875 -4.0625 9.1875 -5 7 C-4.67 6.01 -4.34 5.02 -4 4 C-3.34 4 -2.68 4 -2 4 C-1.67 3.01 -1.34 2.02 -1 1 C-0.67 0.67 -0.34 0.34 0 0 Z " fill="#AAA4DD" transform="translate(370,319)"/>
<path d="M0 0 C2.96052484 3.36423277 3.92289822 6.69159287 5 11 C2.525 10.01 2.525 10.01 0 9 C0 6.03 0 3.06 0 0 Z " fill="#ABA4E0" transform="translate(408,204)"/>
<path d="M0 0 C-0.825 0.474375 -1.65 0.94875 -2.5 1.4375 C-3.325 1.953125 -4.15 2.46875 -5 3 C-5 3.33 -5 3.66 -5 4 C-7.97 4 -10.94 4 -14 4 C-12.68 3.67 -11.36 3.34 -10 3 C-10 2.34 -10 1.68 -10 1 C-8.71073008 0.63720544 -7.41846728 0.28503302 -6.125 -0.0625 C-5.40570313 -0.25972656 -4.68640625 -0.45695312 -3.9453125 -0.66015625 C-2 -1 -2 -1 0 0 Z " fill="#ABA4DE" transform="translate(275,401)"/>
<path d="M0 0 C1.32 0.33 2.64 0.66 4 1 C1.69 3.31 -0.62 5.62 -3 8 C-3.33 6.68 -3.66 5.36 -4 4 C-3.01 3.67 -2.02 3.34 -1 3 C-0.67 2.01 -0.34 1.02 0 0 Z " fill="#9894D6" transform="translate(401,284)"/>
<path d="M0 0 C-1.98 2.97 -1.98 2.97 -4 6 C-4.99 5.34 -5.98 4.68 -7 4 C-6.67 3.67 -6.34 3.34 -6 3 C-6.99 2.34 -7.98 1.68 -9 1 C-6.04335481 -0.4783226 -3.25770263 -0.06032783 0 0 Z " fill="#8482D7" transform="translate(383,281)"/>
<path d="M0 0 C1.32 0 2.64 0 4 0 C2.68775452 3.93673644 1.08089673 6.22719294 -2 9 C-1.125 1.125 -1.125 1.125 0 0 Z " fill="#A59FDC" transform="translate(156,159)"/>
<path d="M0 0 C1.32 0 2.64 0 4 0 C2.60667426 3.36720387 1.0210714 4.9859524 -2 7 C-2.33 6.01 -2.66 5.02 -3 4 C-1.8125 1.8125 -1.8125 1.8125 0 0 Z " fill="#918DD9" transform="translate(327,355)"/>
<path d="M0 0 C2.79108116 1.32144108 5.25786389 2.80382361 7.75 4.625 C8.67039063 5.29402344 8.67039063 5.29402344 9.609375 5.9765625 C10.06828125 6.31429688 10.5271875 6.65203125 11 7 C9 8 9 8 5 8 C3.515625 6.25 3.515625 6.25 2.25 4 C1.82203125 3.2575 1.3940625 2.515 0.953125 1.75 C0.63859375 1.1725 0.3240625 0.595 0 0 Z " fill="#B4AEE2" transform="translate(149,332)"/>
<path d="M0 0 C1.305239 3.91571701 0.32239848 5.03892997 -1.4375 8.6875 C-1.91058594 9.68136719 -2.38367188 10.67523438 -2.87109375 11.69921875 C-3.42990234 12.83810547 -3.42990234 12.83810547 -4 14 C-4.85709523 10.92605694 -5.15444061 9.04352525 -4 6 C-3.34 5.67 -2.68 5.34 -2 5 C-1.27840576 3.35636866 -0.60648579 1.68949614 0 0 Z " fill="#BDBAE6" transform="translate(341,294)"/>
<path d="M0 0 C2.38672669 2.96283313 4.7353371 5.94270509 7 9 C6.67 9.66 6.34 10.32 6 11 C3.5625 10 3.5625 10 1 8 C0.23618519 5.27285838 0.14057352 2.85832822 0 0 Z " fill="#BAB5E4" transform="translate(220,382)"/>
<path d="M0 0 C2.67901932 2.31881505 3.66204403 4.31814468 4.6875 7.6875 C4.93886719 8.49574219 5.19023437 9.30398437 5.44921875 10.13671875 C5.63097656 10.75160156 5.81273437 11.36648437 6 12 C5.34 11.67 4.68 11.34 4 11 C4 10.01 4 9.02 4 8 C3.01 8 2.02 8 1 8 C0.67 5.36 0.34 2.72 0 0 Z " fill="#B9B4E5" transform="translate(373,216)"/>
<path d="M0 0 C4.83628305 0.99043705 9.47618873 1.95698846 14 4 C14 4.33 14 4.66 14 5 C11.03 4.67 8.06 4.34 5 4 C5 3.34 5 2.68 5 2 C3.35 1.67 1.7 1.34 0 1 C0 0.67 0 0.34 0 0 Z " fill="#BBB7E8" transform="translate(295,114)"/>
<path d="M0 0 C1.98 0 3.96 0 6 0 C6.33 0.66 6.66 1.32 7 2 C9.01669827 3.13350534 9.01669827 3.13350534 11 4 C8 5 8 5 5.95703125 4.22265625 C5.24933594 3.83980469 4.54164063 3.45695312 3.8125 3.0625 C3.09707031 2.68222656 2.38164062 2.30195313 1.64453125 1.91015625 C1.10183594 1.60980469 0.55914062 1.30945313 0 1 C0 0.67 0 0.34 0 0 Z " fill="#ACA4DF" transform="translate(222,415)"/>
<path d="M0 0 C0 3 0 3 -1.3125 4.38671875 C-2.875 5.59114583 -4.4375 6.79557292 -6 8 C-6 6.35 -6 4.7 -6 3 C-5.01 3 -4.02 3 -3 3 C-2.67 2.34 -2.34 1.68 -2 1 C-1.34 0.67 -0.68 0.34 0 0 Z " fill="#AAA4DE" transform="translate(335,377)"/>
<path d="M0 0 C1.98 0 3.96 0 6 0 C4.35 1.65 2.7 3.3 1 5 C-1 4 -1 4 -2 2 C-1.34 2 -0.68 2 0 2 C0 1.34 0 0.68 0 0 Z " fill="#9F99DC" transform="translate(283,372)"/>
<path d="M0 0 C0.87324262 2.44507934 1.10151327 3.67700322 0.3125 6.1875 C-1 8 -1 8 -3.125 8.75 C-4.053125 8.87375 -4.053125 8.87375 -5 9 C-3.7508258 5.54074837 -2.32472205 2.85306797 0 0 Z " fill="#AAA6DB" transform="translate(176,163)"/>
<path d="M0 0 C3.53372712 1.96318174 6.24479785 4.04070881 9 7 C6.03 6.505 6.03 6.505 3 6 C3 5.34 3 4.68 3 4 C2.34 4 1.68 4 1 4 C0.67 2.68 0.34 1.36 0 0 Z " fill="#ACA5DA" transform="translate(354,143)"/>
<path d="M0 0 C0.66 0.33 1.32 0.66 2 1 C-1.07999946 4.67230705 -3.2482602 5.56802365 -8 6 C-5.54080489 3.3651481 -3.42227589 1.25483449 0 0 Z " fill="#ADA8DE" transform="translate(225,118)"/>
<path d="M0 0 C2.31 0.33 4.62 0.66 7 1 C7.144375 1.61875 7.28875 2.2375 7.4375 2.875 C7.93152225 5.03258322 7.93152225 5.03258322 9 7 C5.18315774 5.44499019 2.80804268 2.96404505 0 0 Z " fill="#B6B1E5" transform="translate(132,344)"/>
<path d="M0 0 C1.32 1.32 2.64 2.64 4 4 C3.67 4.99 3.34 5.98 3 7 C1.0625 6.1875 1.0625 6.1875 -1 5 C-1.33 4.01 -1.66 3.02 -2 2 C-1.34 2 -0.68 2 0 2 C0 1.34 0 0.68 0 0 Z " fill="#A19BDE" transform="translate(115,324)"/>
<path d="M0 0 C0.33 0 0.66 0 1 0 C1 2.64 1 5.28 1 8 C-0.98 8.99 -0.98 8.99 -3 10 C-2.39009109 6.44219804 -1.4216319 3.3171411 0 0 Z " fill="#B4AEE4" transform="translate(358,295)"/>
<path d="M0 0 C-5.14285714 4.42857143 -5.14285714 4.42857143 -9 5 C-8.6875 3.0625 -8.6875 3.0625 -8 1 C-5.07175348 0.02391783 -3.04386724 -0.08226668 0 0 Z " fill="#A5A1DA" transform="translate(375,262)"/>
<path d="M0 0 C0.66 0.33 1.32 0.66 2 1 C-1.32307692 5.8 -1.32307692 5.8 -4.75 6.8125 C-5.4925 6.874375 -6.235 6.93625 -7 7 C-4.78071806 4.09197539 -3.07030857 2.04687238 0 0 Z " fill="#A9A6DF" transform="translate(106,207)"/>
<path d="M0 0 C0.33 0.66 0.66 1.32 1 2 C-1.17508418 6.69360269 -1.17508418 6.69360269 -4.1875 7.8125 C-4.785625 7.874375 -5.38375 7.93625 -6 8 C-2.25 2.25 -2.25 2.25 0 0 Z " fill="#A49FD8" transform="translate(183,155)"/>
<path d="M0 0 C0.33 0.66 0.66 1.32 1 2 C0.22265625 3.9453125 0.22265625 3.9453125 -0.9375 6.125 C-1.31777344 6.84945313 -1.69804687 7.57390625 -2.08984375 8.3203125 C-2.39019531 8.87460937 -2.69054687 9.42890625 -3 10 C-3.66 8.68 -4.32 7.36 -5 6 C-3.35 4.02 -1.7 2.04 0 0 Z " fill="#B0ABE0" transform="translate(335,309)"/>
<path d="M0 0 C3.08089673 2.77280706 4.68775452 5.06326356 6 9 C3.5625 7.875 3.5625 7.875 1 6 C0.1875 2.8125 0.1875 2.8125 0 0 Z " fill="#B4B1E1" transform="translate(113,294)"/>
<path d="M0 0 C1.32 0.66 2.64 1.32 4 2 C1.03 4.475 1.03 4.475 -2 7 C-2.66 6.67 -3.32 6.34 -4 6 C-3.67 5.01 -3.34 4.02 -3 3 C-2.01 3 -1.02 3 0 3 C0 2.01 0 1.02 0 0 Z " fill="#B7B1DF" transform="translate(202,110)"/>
<path d="M0 0 C0.66 0.33 1.32 0.66 2 1 C1.34 2.65 0.68 4.3 0 6 C-2.475 5.01 -2.475 5.01 -5 4 C-3.35 2.68 -1.7 1.36 0 0 Z " fill="#7F7ACF" transform="translate(262,98)"/>
<path d="M0 0 C3 1.8125 3 1.8125 6 4 C6 4.99 6 5.98 6 7 C3.36 5.68 0.72 4.36 -2 3 C-1.34 2.67 -0.68 2.34 0 2 C0 1.34 0 0.68 0 0 Z " fill="#ABA6DE" transform="translate(271,88)"/>
<path d="M0 0 C1.65 0 3.3 0 5 0 C3.25 4.875 3.25 4.875 1 6 C0.67 4.02 0.34 2.04 0 0 Z " fill="#A3A0D9" transform="translate(349,352)"/>
<path d="M0 0 C2.64 0 5.28 0 8 0 C8.33 1.32 8.66 2.64 9 4 C6.03 3.01 3.06 2.02 0 1 C0 0.67 0 0.34 0 0 Z " fill="#ACA4DF" transform="translate(192,339)"/>
<path d="M0 0 C0.33 1.32 0.66 2.64 1 4 C-1.475 5.485 -1.475 5.485 -4 7 C-4 4 -4 4 -2 1.8125 C-1.34 1.214375 -0.68 0.61625 0 0 Z " fill="#A7AAE0" transform="translate(161,124)"/>
<path d="M0 0 C1.32 0 2.64 0 4 0 C4 0.66 4 1.32 4 2 C4.66 2 5.32 2 6 2 C6 2.99 6 3.98 6 5 C3.5625 4.1875 3.5625 4.1875 1 3 C0.67 2.01 0.34 1.02 0 0 Z " fill="#A39DD7" transform="translate(160,319)"/>
<path d="M0 0 C1.00000429 4.00001715 0.80688405 6.05523353 0 10 C-0.99 10 -1.98 10 -3 10 C-2.01 6.7 -1.02 3.4 0 0 Z " fill="#B3B0E4" transform="translate(154,200)"/>
<path d="M0 0 C4.42857143 5.14285714 4.42857143 5.14285714 5 9 C2 8 2 8 0.8125 6.1875 C0 4 0 4 0 0 Z " fill="#B8B5E2" transform="translate(403,195)"/>
<path d="M0 0 C0.99 0 1.98 0 3 0 C1.125 4.75 1.125 4.75 0 7 C-0.66 7 -1.32 7 -2 7 C-1.42415568 4.61435923 -0.77772405 2.33317216 0 0 Z " fill="#A49FD4" transform="translate(148,173)"/>
<path d="M0 0 C0.99 0.33 1.98 0.66 3 1 C3.33 3.31 3.66 5.62 4 8 C1 6 1 6 0.3125 2.875 C0.209375 1.92625 0.10625 0.9775 0 0 Z " fill="#9490CE" transform="translate(251,120)"/>
<path d="M0 0 C2.4375 0.6875 2.4375 0.6875 5 2 C5.8125 4.625 5.8125 4.625 6 7 C3.95880212 5.38405168 1.95927063 3.7143618 0 2 C0 1.34 0 0.68 0 0 Z " fill="#ADA5DD" transform="translate(107,319)"/>
<path d="M0 0 C0 0.99 0 1.98 0 3 C-2 4.6875 -2 4.6875 -4 6 C-4.33 4.68 -4.66 3.36 -5 2 C-3.35 1.34 -1.7 0.68 0 0 Z " fill="#ABA9DD" transform="translate(176,137)"/>
</svg>
